<?xml version="1.0" encoding="UTF-8" standalone="no"?>
<!DOCTYPE svg PUBLIC "-//W3C//DTD SVG 1.1//EN" "http://www.w3.org/Graphics/SVG/1.1/DTD/svg11.dtd">
<svg width="100%" height="100%" viewBox="0 0 200 200" version="1.1" xmlns="http://www.w3.org/2000/svg" xmlns:xlink="http://www.w3.org/1999/xlink" xml:space="preserve" xmlns:serif="http://www.serif.com/" style="fill-rule:evenodd;clip-rule:evenodd;stroke-linejoin:round;stroke-miterlimit:2;">
    <circle cx="100" cy="100" r="100"/>
    <clipPath id="_clip1">
        <circle cx="100" cy="100" r="100"/>
    </clipPath>
    <g clip-path="url(#_clip1)">
        <g>
            <path d="M122.676,39.514C147.149,48.709 164.583,72.334 164.583,100C164.583,127.666 147.149,151.291 122.676,160.486C117.294,162.507 114.566,168.518 116.588,173.9C118.609,179.282 124.62,182.01 130.002,179.988C162.366,167.83 185.417,136.585 185.417,100C185.417,63.415 162.366,32.17 130.002,20.012C124.62,17.99 118.609,20.718 116.588,26.1C114.566,31.482 117.294,37.493 122.676,39.514Z" style="fill:rgb(18,131,48);"/>
            <path d="M77.324,160.486C52.851,151.291 35.417,127.666 35.417,100C35.417,72.334 52.851,48.709 77.324,39.514C82.706,37.493 85.434,31.482 83.412,26.1C81.391,20.718 75.38,17.99 69.998,20.012C37.634,32.17 14.583,63.415 14.583,100C14.583,136.585 37.634,167.83 69.998,179.988C75.38,182.01 81.391,179.282 83.412,173.9C85.434,168.518 82.706,162.507 77.324,160.486Z" style="fill:rgb(18,131,48);"/>
        </g>
        <g transform="matrix(1.8844,0,0,1.8844,-59.1624,-38.5048)">
            <rect x="79.816" y="56.254" width="9.294" height="34.494" style="fill:white;fill-rule:nonzero;"/>
        </g>
    </g>
</svg>
